<svg xmlns="http://www.w3.org/2000/svg" viewBox="0 0 64 64"><path fill="#ffd4cf" d="M19,29.81,26.1,24.2l14.33-.14s2.1,12.06,3.89,14.17,4,2.2,3.09,3.59-2.53,2.2-2.29,4.56a10.38,10.38,0,0,1,0,1.52l-4.8,1.46A.89.89,0,0,0,40,50.85l2.85,2.8a6.92,6.92,0,0,1-3.91,1.84c-5.95.89-16-2.55-16-2.55L17.77,41.62Z"/><path fill="#f27777" d="M18.65,33.21,19,29.81,26.1,24.2l14.33-.14s.88,5.06,2,9.21A36.37,36.37,0,0,1,18.65,33.21Z"/><path fill="#58595b" d="M43.12,19.1s2.35,8.72-5,11.15c0,0-.73-2.2-1.63-2.45,0,0-1.55,5.67-5.79,6,0,0-1.79-2.66-2.69-3.72,0,0-2,3.09-1.64,5.7s.81,5.7.81,5.7-2.36-3.83-4.48-2,1.21,6.92,3.57,7.5c0,0-3.1,8.57-5.38,9.06,0,0-.1-2.2-1.08-2.69s-8.19-7.2-9.24-13.64,1.65-17.1,9.47-20.51,16,1.73,20.36.84A12.42,12.42,0,0,0,43.12,19.1Z"/><path fill="#6a6b6b" d="M10.6,39.66c-1-6.43,1.65-17.1,9.47-20.51,5.87-2.56,12-.3,16.47.61a31.51,31.51,0,0,1-9.62,6.68C21.28,28.84,16.38,40,15.19,48.62,13.15,46.09,11.12,42.84,10.6,39.66Z"/><ellipse cx="30" cy="18.81" fill="none" stroke="#bbbdbf" stroke-linecap="round" stroke-linejoin="round" rx="20" ry="4"/><path fill="none" stroke="#e5bbb7" stroke-linecap="round" stroke-linejoin="round" d="M39.46,35.72a4.65,4.65,0,0,0,4-1.51"/><polygon fill="#f6ee86" points="27.96 9.17 30.15 8.02 29.73 10.46 31.51 12.19 29.06 12.55 27.96 14.77 26.86 12.55 24.41 12.19 26.18 10.46 25.77 8.02 27.96 9.17"/><polygon fill="#f6ee86" points="51.79 15.37 54 16.31 51.91 17.5 51.71 19.89 49.93 18.27 47.59 18.81 48.58 16.62 47.34 14.57 49.73 14.83 51.3 13.02 51.79 15.37"/><polygon fill="#f6ee86" points="16.66 21.3 19.05 21.53 17.41 23.29 17.92 25.63 15.74 24.61 13.67 25.83 13.97 23.44 12.18 21.85 14.53 21.39 15.5 19.19 16.66 21.3"/><rect width="64" height="64" fill="none"/></svg>